<svg width="34" height="35" viewBox="0 0 34 35" fill="none" xmlns="http://www.w3.org/2000/svg">
<path d="M16.9997 0.833496C7.79967 0.833496 0.333008 8.30016 0.333008 17.5002C0.333008 26.7002 7.79967 34.1668 16.9997 34.1668C26.1997 34.1668 33.6663 26.7002 33.6663 17.5002C33.6663 8.30016 26.1997 0.833496 16.9997 0.833496ZM16.9997 7.50016C20.2163 7.50016 22.833 10.1168 22.833 13.3335C22.833 16.5502 20.2163 19.1668 16.9997 19.1668C13.783 19.1668 11.1663 16.5502 11.1663 13.3335C11.1663 10.1168 13.783 7.50016 16.9997 7.50016ZM16.9997 30.8335C13.6163 30.8335 9.61634 29.4668 6.76634 26.0335C9.68568 23.743 13.289 22.4982 16.9997 22.4982C20.7103 22.4982 24.3137 23.743 27.233 26.0335C24.383 29.4668 20.383 30.8335 16.9997 30.8335Z" fill="#FD5103"/>
</svg>
